<?xml version="1.0" encoding="utf-8"?>
<!-- Generator: Adobe Illustrator 24.1.2, SVG Export Plug-In . SVG Version: 6.00 Build 0)  -->
<svg version="1.1" id="Laag_1" xmlns="http://www.w3.org/2000/svg" xmlns:xlink="http://www.w3.org/1999/xlink" x="0px" y="0px"
	 viewBox="0 0 1000 258.6" style="enable-background:new 0 0 1000 258.6;" xml:space="preserve">
<style type="text/css">
	.st0{fill:#FFFFFF;}
</style>
<path class="st0" d="M258.1,128.1c0-2.6-2.2-4.9-4.9-4.9c-0.4,0-0.8,0.1-1.1,0.2c-42.9,8.9-87.6,12.4-133.5,9.9
	c-14.1-0.8-28,0-41.7,1.1c-1,0.1-2.1,0.2-3.1,0.3c-11,1.5-21.4,6.4-29.5,14.3c-7.2,7.1-12.3,16.1-14.5,26
	c-2.6,11.9-0.8,24.1,4.3,35.1c4.9,10.7,12.7,19.9,22.4,26.6c10.5,7.1,22.1,12.6,34.3,16.3c7.7,2.3,14.5,3.7,22.6,4.7
	c0.1-3.1,4.7-7.8,4.9-10.1c0.2-2.3-1.6-4.3-3.9-4.5c-12.6,0.5-21.8,0.2-33.6-4.2c-12.1-4.5-23-12-31.7-21.6
	c-4.2-4.6-7.6-9.7-9.8-15.5c-2.2-5.8-3.1-12-2.8-18.2c1.2-20.8,17.3-38.4,38-41.3c11.4-1.6,23.2,1.3,32.5,8.1c4.9,3.5,9,8.1,12,13.3
	c3.4,5.9,6.3,12.1,8.3,18.6c4.2,13.6,4.5,28.4,2.8,42.4c-0.8,5.9-2,11.8-3.7,17.6c-1,3.3-2.1,6.5-3.4,9.7c-0.2,0.6-0.4,1.2-0.4,1.9
	c0,2.7,2.1,4.8,4.7,4.8c0.3,0,0.9,0,1.2,0c31.7,0,60.8-11.4,83.3-30.3c0,0,0.1-0.1,0.1-0.1c0.9-0.9,1.5-2.1,1.5-3.4
	c0-1-0.3-1.9-0.8-2.6c-8.4-14.7-26.8-35.7-26.8-35.7s20.8,18.6,35.7,26.8c0.8,0.4,1.7,0.8,2.7,0.8c1.3,0,2.5-0.5,3.4-1.4
	c0.1,0,0.1-0.1,0.2-0.2c18.9-22.5,30.3-51.5,30.3-83.1C258.1,128.9,258.1,128.5,258.1,128.1"/>
<path class="st0" d="M24.1,187.3c-5.1-11.4-8.3-23.6-9-36c-0.1-1.7-0.1-3.9-0.1-5.6c0-2.3-1.9-4.2-4.2-4.2c-2.3,0-7.3,4.2-10.7,4.2
	c3.5,27.3,15.9,53.2,35,73.1c9.4,9.7,20.9,17.3,34.1,20.9c11.3,3.1,23.3,1.7,33.7-3.6c5-2.5,9.6-5.9,13.4-10.1
	c4.1-4.4,7.2-9.7,10.1-14.9c3-5.5,5.7-11.2,8.1-17c2.5-6.2,4.6-12.5,7.4-18.6c10.5-23,25.4-44,45.4-59.6
	c9.8-7.6,20.5-14.1,31.9-19.1c5.8-2.6,11.7-4.8,17.8-6.6c2.9-0.9,5.8-1.7,8.8-2.4c2.6-0.8,4.1-3.6,3.2-6.2
	C241.6,63,229.8,46.3,215,33c-0.1-0.1-0.2-0.2-0.3-0.3c-0.9-0.7-2-1.2-3.2-1.2c-1.3,0-2.5,0.8-3.5,1.5
	c-23.9,16.6-41.5,44.2-41.5,44.2s9.3-23.7,29.2-52.8c0.5-0.7,0.7-1.6,0.7-2.5c0-1.7-0.8-3.1-2.1-4c-0.1-0.1-0.3-0.2-0.5-0.3
	c-12.3-7.1-25.7-12.3-39.7-15.1c-10.2-2-20.6-2.8-31-2.4c0,0-0.1,0-0.1,0c-0.1,0-0.1,0-0.2,0c-2.6,0.1-4.6,2.2-4.7,4.8
	c-1.3,34,5.3,92.4,5.3,92.4S111.7,39.8,100,7.8c-0.7-1.9-2.4-3.4-4.6-3.4c-0.3,0-0.7,0-1,0.1c0,0-0.1,0-0.1,0
	c-0.8,0.2-1.7,0.5-2.5,0.7c-19.5,5.8-37.6,16.2-52.4,30.2c-2.5,2.4-5,4.9-7.3,7.6c0,0-0.1,0.1-0.2,0.2c-0.8,0.9-1.3,2-1.3,3.3
	c0,1.3,0.5,2.7,1.5,3.4c25.5,19.4,44.3,41.5,44.3,41.5S52.3,73.6,23.5,62.3c-0.8-0.3-1.6-0.7-2.5-0.7c-1.7,0-3.1,0.9-4,2.1
	c0,0,0,0,0,0.1C12.8,70.8,9.3,78.3,6.5,86c-3.5,9.8-5.8,20.1-6.8,30.5c-0.3,2.7-0.4,5.4,2.3,6.9c1.1,0.6,2.3,0.7,3.5,0.5
	c1.8-0.4,3.5-0.7,5.3-1c6.9-1.1,13.8-1.6,20.7-1.6c13.9,0.1,27.7,2.7,40.7,7.5c12,4.5,22.9,11.5,31.2,21.3c15.6,18.6,24,50.4,6,70.2
	c-8.3,9.1-20.4,13.5-32.6,12.4c-6.3-0.6-11.8-2.8-17.3-5.7c-5-2.7-9.7-5.8-14-9.6C36.3,209.2,29.2,198.5,24.1,187.3"/>
<g>
	<path class="st0" d="M578,120.7c0-2.1,11.9-0.4,17.4,1.2c4.4,1.4,11.5,3.4,19,9.2c4.3,3.3,9.5,9.1,9.5,16.1c0,7-4.2,10.5-9.3,10.5
		c-2.8-0.4-5.7-2-8.2-4.6c-2.5-2.5-4.5-7.6-11.8-16C586.2,127.7,578,122.1,578,120.7"/>
	<path class="st0" d="M570.2,52.2l0-13.3l5.9-1.9l0,0c0.7-0.2,1.3-0.8,1.3-1.6c0-0.8-0.6-1.5-1.4-1.6v0l-26.9-4v22.5h-58.7l1.9,4
		h138.7c0,0,1.7-2.4,0-4c-1.7-1.6-16.4-10.7-16.4-10.7l-9.8,10.7L570.2,52.2z"/>
	<path class="st0" d="M546.1,126.1L546.1,126.1l-23.9-8.4c-8.8,14.6-17,26.4-29.8,37.3l0,0c-0.3,0.2-0.5,0.6-0.5,0.9
		c0,0.7,0.6,1.3,1.3,1.3c0.2,0,0.3-0.1,0.4-0.1v0c0,0,0,0,0.1,0v0c11.3-4.1,27.7-14.6,47.1-27.8l4.8,0c0.9,0,1.7-0.7,1.7-1.7
		C547.3,126.9,546.8,126.3,546.1,126.1"/>
	<path class="st0" d="M806.5,71.4c-2.2-2.1-18.1-11.9-18.1-11.9l-9.9,11.9h-35.4l0-32.5l5.9-1.9l0,0c0.7-0.2,1.3-0.8,1.3-1.6
		c0-0.8-0.7-1.5-1.4-1.6v0l-28-4v41.6h-53.9l1.9,4h52.1c-0.3,19.9-4.9,35.3-11.8,46.6c-8.5,14.2-21.5,27.4-42.4,38.8c0,0,0,0,0,0
		c-0.1,0.1-0.2,0.1-0.2,0.1h0c-0.3,0.3-0.5,0.6-0.5,1c0,0.7,0.6,1.2,1.3,1.2c0.1,0,0.2,0,0.4,0l0,0c25.2-7.2,45.5-18.7,56-32.4
		c9-11.8,15.3-25.1,17.1-42.3c1.9,15.3,5.8,27.6,11.5,36.8c7.3,13.1,19.5,25.6,36,35.9c0.1,0.1,0.2,0.1,0.3,0.2
		c0.2,0.1,0.4,0.1,0.6,0.1c0.4,0,0.7-0.1,0.9-0.3c0.4-0.2,0.6-0.7,0.7-1.2c1.1-6.1,9-11.4,15.1-13.6c-19.5-10.9-35.4-23.8-43.2-33.6
		c-9.3-11.7-15.8-24.2-19.2-37.4h63.1C806.5,75.4,808.7,73.5,806.5,71.4"/>
	<path class="st0" d="M880,35.1c-0.2,0.3-0.1,0.9,0.2,1.5c1.7,2.8,6.2,9.3,8.8,13.7c3.1,5.4,3.4,7.4,5.3,9.3c1.7,1.7,7.6,3,11.1,0.6
		c3.6-2.4,4-7.4,2.5-11.2c-1.5-3.8-6.9-9.8-12.8-12.1C889.3,34.7,881.1,33.2,880,35.1"/>
	<path class="st0" d="M908.9,30.4c-0.3,0.3-0.5,1,0,1.6c1.9,2.5,5.9,7.5,9,12.5c4,6.4,4.5,10,6.6,12.2c3.4,3.4,9.5,2.7,11.5,0.7
		c2.9-2.9,3.9-7.9,2.8-11.7c-1.8-5.9-7.2-10.9-14.9-13.6C917.2,29.8,910.2,29.1,908.9,30.4"/>
	<path class="st0" d="M878.1,53.9c3.2,0.5,5.3,13,2.1,24.1c-2.6,9.1-8.9,13.2-15.8,11.7c-5.4-1.2-7.2-6-5.5-11.5
		c1.4-4.8,5.9-8.5,9.1-11.6c3.2-3.1,7.1-8.5,8-11C876.2,54.6,876.7,53.7,878.1,53.9"/>
	<path class="st0" d="M937.4,117.5v34.6c0,8.3-16.4,11-21.3,11c-2.6,0-2.5-2.5-3.6-4.6c-1-1.8-3.9-4.4-20.1-5.6l-1.4-3.2h25.8
		l0-32.1h-58.1l-1.9-4h60V97.8l24.7,2.7c2.4,1.2-0.5,5.1-4.1,6.6v6.3h31.5l11.2-12c0,0,13.4,10,15.5,12c2.1,2,0,4,0,4L937.4,117.5
		L937.4,117.5z"/>
	<path class="st0" d="M999.8,67.5c0-0.6-0.4-1.2-0.9-1.5h0l-0.1-0.1l-21.4-10.7l-5.9,8.5l-20.5-0.1l23.9-21.1l6.7-0.8
		c0.9,0,1.7-0.8,1.7-1.7c0-0.7-0.4-1.3-1-1.5l-24.7-8.8c-3.9,9.9-8.7,21.9-14.4,33.9h-62.9l-0.1,4l92.7,0.2l-6.2,19.5l2.5,0.7
		l23.6-18.6l5.7-0.4v0C999.1,69,999.8,68.3,999.8,67.5"/>
	<path class="st0" d="M973,87.5L973,87.5l-20.5-13.4l-6,6.4h-62.3l1.8,4h59.4l-11.4,18.3c1.9,0.4,0.3,3.8,3.5,4.4L965.8,90l6.1,0.5
		v0c0.1,0,0.2,0,0.2,0c0.9,0,1.7-0.8,1.7-1.7C973.7,88.3,973.4,87.8,973,87.5"/>
	<path class="st0" d="M413.6,131.2c-10.1-4.5-18-10.1-23.7-16.9h25.8v6.1l20-3V76.1l4.6-2.1c0.8-0.3,1.3-1.1,1.3-1.9
		c0-0.8-0.5-1.5-1.1-1.8l-19.3-10.9l-6.5,8.3h-26V52.8h60c0,0,1.9-2.3,0-4.2c-2-1.9-15.2-9.5-15.2-9.5l-8.6,9.5h-36.2l0-9.7l5.9-1.9
		l0,0c0.7-0.2,1.3-0.8,1.3-1.6c0-0.8-0.6-1.5-1.4-1.6l0,0l-26.3-4v18.9h-59.8l1.7,4.2H368v14.7h-27.2l-19.1-7.3v60.1l20-3v-3.1
		l20.2,0c-15.6,19.3-34.1,31.3-52.9,42h0c-0.4,0.2-0.7,0.6-0.7,1.1c0,0.7,0.6,1.3,1.3,1.3c0.1,0,0.3-0.1,0.4-0.1l0,0
		c17-5.5,36.7-10.9,58-27.8v32.3l20.6-2.8V120c3.1,6.6,6.7,10.7,10.7,15.2c9,10.4,21.5,17,37.8,23c2.6-8.2,6.1-14.4,12.3-16.4l1-1.6
		C437.4,137.8,425,136.7,413.6,131.2 M368,110.2h-26.3V92.2H368V110.2z M368,88.2h-26.3V71.6H368V88.2z M388.6,71.6h27v16.6h-27
		V71.6z M388.6,92.2h27v18.1h-27V92.2z"/>
	<path class="st0" d="M617.3,72.9L617.3,72.9l-20-11.3l-6.5,8.3h-61.4l-19.8-7.3v52.3l20.6-3v-3.4h20v41.1h-25.8l1.4,3.2
		c16.2,1.2,19.2,3.8,20.1,5.6c1.1,2.2,1,4.6,3.6,4.6c4.9,0,21.3-2.7,21.3-11v-43.6h21.2v5.8l20.6-3V79.5v-0.7l4.6-2.2
		c0.8-0.3,1.3-1.1,1.3-2C618.5,74,618,73.3,617.3,72.9 M591.9,104.4h-61.7V73.9h61.7V104.4z"/>
	<path class="st0" d="M372.2,204.2c0.1,0,0.3-0.1,0.3-0.3v-1.1c0-7.6,0-9-0.1-10.6c-0.1-1.7-0.5-2.5-2.1-2.9
		c-0.4-0.1-1.2-0.1-1.9-0.1c-0.5,0-0.8-0.1-0.8-0.5c0-0.3,0.4-0.4,1-0.4h12.9c0.7,0,1,0.1,1,0.4c0,0.4-0.3,0.5-0.9,0.5
		c-0.4,0-0.8,0-1.4,0.1c-1.3,0.3-1.7,1.1-1.8,2.9c-0.1,1.6-0.1,28,0.2,30.2c0.1,1.4,0.4,2.5,1.9,2.7c0.7,0.1,1.7,0.2,2.4,0.2
		c0.5,0,0.8,0.1,0.8,0.4c0,0.4-0.4,0.5-1,0.5h-13.4c-0.7,0-1-0.1-1-0.5c0-0.3,0.2-0.4,0.8-0.4c0.7,0,1.3-0.1,1.7-0.2
		c0.9-0.2,1.2-1.3,1.4-2.8c0.2-2.1,0.2-6.1,0.2-10.7v-4.4c0-0.2-0.1-0.3-0.3-0.3H354c-0.1,0-0.3,0-0.3,0.3v4.4c0,4.6,0,8.6,0.3,10.7
		c0.1,1.4,0.4,2.5,1.8,2.7c0.7,0.1,1.7,0.2,2.4,0.2c0.5,0,0.8,0.1,0.8,0.4c0,0.4-0.4,0.5-1,0.5h-13.5c-0.6,0-0.9-0.1-0.9-0.5
		c0-0.3,0.2-0.4,0.7-0.4c0.7,0,1.3-0.1,1.7-0.2c1-0.2,1.2-1.3,1.4-2.8c0.3-2.1,0.3-28.5,0.1-30.1c-0.1-1.7-0.5-2.5-2.1-2.9
		c-0.4-0.1-1.2-0.1-1.9-0.1c-0.5,0-0.8-0.1-0.8-0.5c0-0.3,0.3-0.4,1-0.4h12.9c0.7,0,1,0.1,1,0.4c0,0.4-0.3,0.5-0.9,0.5
		c-0.4,0-0.8,0-1.4,0.1c-1.3,0.3-1.7,1.1-1.8,2.9c-0.1,1.6-0.1,3-0.1,10.6v1.1c0,0.2,0.2,0.3,0.3,0.3L372.2,204.2L372.2,204.2z"/>
	<path class="st0" d="M430.5,180.9c-0.1-2.3-0.6-3.3-2.7-3.8c-0.5-0.1-1.6-0.2-2.5-0.2c-0.7,0-1.1-0.1-1.1-0.6
		c0-0.5,0.5-0.6,1.4-0.6h17.1c1,0,1.4,0.1,1.4,0.6c0,0.5-0.4,0.6-1,0.6c-0.7,0-1.1,0.1-1.9,0.2c-1.7,0.3-2.2,1.5-2.3,3.8
		c-0.1,2.1-0.1,23.5-0.1,23.5c0,9.7,1.8,13.8,5,16.4c2.9,2.5,5.8,2.8,8,2.8c2.8,0,6.2-1,8.8-3.6c3.5-3.7,3.7-9.7,3.7-16.6
		c0,0,0-20.4-0.1-22.5c-0.1-2.3-0.6-3.3-2.7-3.8c-0.5-0.1-1.6-0.2-2.3-0.2c-0.7,0-1.1-0.1-1.1-0.6c0-0.5,0.5-0.6,1.3-0.6h14.6
		c0.9,0,1.4,0.1,1.4,0.6c0,0.5-0.4,0.6-1.1,0.6c-0.7,0-1.1,0.1-1.9,0.2c-1.7,0.3-2.2,1.5-2.4,3.8c-0.1,2.1-0.1,21.3-0.1,21.3
		c0,7.4-0.7,15.3-6,20.1c-4.5,4.1-9.1,4.8-13.2,4.8c-3.4,0-9.5-0.2-14.1-4.6c-3.2-3.1-5.6-8-5.6-17.7
		C430.6,204.9,430.6,183,430.5,180.9"/>
	<path class="st0" d="M651.7,192.2c-0.1-1.7-0.6-2.6-1.6-2.8c-0.5-0.2-1.1-0.2-1.7-0.2c-0.5,0-0.8-0.1-0.8-0.5
		c0-0.3,0.4-0.4,1.2-0.4h12c0.6,0,1,0.1,1,0.4c0,0.4-0.3,0.5-0.8,0.5c-0.5,0-0.8,0-1.4,0.1c-1.3,0.3-1.7,1.1-1.8,2.9
		c-0.1,1.6-0.1,28.3,0.1,30.4c0.1,1.4,0.5,2.3,1.9,2.5c0.7,0.1,1.7,0.2,2.5,0.2c0.5,0,0.8,0.1,0.8,0.4c0,0.4-0.4,0.5-0.9,0.5h-13.5
		c-0.6,0-1-0.1-1-0.5c0-0.3,0.2-0.4,0.8-0.4c0.7,0,1.3-0.1,1.7-0.2c1-0.2,1.3-1.1,1.4-2.5C651.8,220.5,651.8,193.8,651.7,192.2"/>
	<path class="st0" d="M714.2,213.2c0-2.7-0.5-3.8-1.1-5.3c-0.3-0.8-6.7-11.8-8.4-14.4c-1.2-1.9-2.4-3.1-3.3-3.7
		c-0.6-0.4-1.4-0.6-2-0.6c-0.4,0-0.7-0.1-0.7-0.5c0-0.3,0.3-0.4,0.9-0.4h11.1c0.5,0,0.7,0.1,0.7,0.4c0,0.3-0.3,0.4-1.1,0.6
		c-0.4,0.1-0.7,0.5-0.7,0.9c0,0.4,0.3,1,0.6,1.7c0.7,1.5,7.4,13.6,8.1,15c0.5-1.2,6.5-12.2,7.2-13.8c0.5-1.1,0.7-1.9,0.7-2.6
		c0-0.5-0.2-1.1-1-1.3c-0.4-0.1-0.9-0.2-0.9-0.5c0-0.3,0.2-0.4,0.8-0.4h9.6c0.5,0,0.9,0.1,0.9,0.4c0,0.3-0.4,0.5-0.9,0.5
		c-0.5,0-1.4,0.2-2.1,0.6c-1,0.5-1.5,1.1-2.6,2.5c-1.6,2-8.2,13.8-9.1,16c-0.7,1.8-0.7,3.3-0.7,5c0,0,0,7,0.2,9.1
		c0.1,1.4,0.5,2.6,1.9,2.8c0.7,0.1,1.7,0.2,2.4,0.2c0.5,0,0.8,0.1,0.8,0.4c0,0.4-0.4,0.5-1,0.5h-13.3c-0.7,0-1.1-0.1-1.1-0.5
		c0-0.3,0.2-0.4,0.8-0.4c0.7,0,1.2-0.1,1.7-0.2c1-0.2,1.4-1.3,1.5-2.8C714.2,220.2,714.2,213.2,714.2,213.2"/>
	<path class="st0" d="M743.7,207.3c0-8.6,5.4-19.7,19.7-19.7c11.9,0,19.3,7.3,19.3,18.8c0,11.5-7.6,20.6-19.8,20.6
		C749.2,226.9,743.7,216.1,743.7,207.3 M776,208.2c0-11.2-6.6-18.2-14.4-18.2c-5.5,0-11.3,3.2-11.3,15.7c0,10.4,5.9,18.7,15,18.7
		C768.6,224.4,776,222.7,776,208.2"/>
	<path class="st0" d="M852.8,207.3c0-8.6,5.4-19.7,19.7-19.7c11.9,0,19.3,7.3,19.3,18.8c0,11.5-7.6,20.6-19.8,20.6
		C858.4,226.9,852.8,216.1,852.8,207.3 M885.1,208.2c0-11.2-6.5-18.2-14.4-18.2c-5.5,0-11.3,3.2-11.3,15.7c0,10.4,5.9,18.7,15,18.7
		C877.8,224.4,885.1,222.7,885.1,208.2"/>
	<path class="st0" d="M926.4,189.2c0.6,0,1.4,0.3,2,0.6c0.9,0.6,2.1,1.8,3.3,3.7c1.7,2.6,8.1,13.6,8.4,14.4c0.6,1.5,1.1,2.6,1.1,5.3
		c0,0,0,7-0.1,9.1c-0.1,1.4-0.5,2.6-1.5,2.8c-0.4,0.1-1,0.2-1.7,0.2c-0.5,0-0.8,0.1-0.8,0.4c0,0.4,0.4,0.5,1.1,0.5h13.3
		c0.6,0,1-0.1,1-0.5c0-0.3-0.3-0.4-0.8-0.4c-0.7,0-1.7-0.1-2.4-0.2c-1.5-0.2-1.9-1.3-2-2.8c-0.2-2.1-0.2-9.1-0.2-9.1
		c0-1.7,0-3.2,0.7-5c0.9-2.2,7.6-14,9.1-16c1-1.4,1.6-2,2.6-2.5c0.7-0.4,1.6-0.6,2.1-0.6c0.5,0,0.9-0.2,0.9-0.5
		c0-0.3-0.3-0.4-0.9-0.4h-9.6c-0.6,0-0.8,0.1-0.8,0.4c0,0.3,0.4,0.4,0.8,0.5c0.8,0.2,1,0.8,1,1.3c0,0.7-0.2,1.5-0.7,2.6
		c-0.7,1.6-6.7,12.6-7.2,13.8c-0.8-1.4-7.5-13.5-8.1-15c-0.4-0.7-0.6-1.3-0.6-1.7c0-0.4,0.2-0.8,0.7-0.9c0.7-0.2,1-0.3,1-0.6
		c0-0.3-0.2-0.4-0.7-0.4h-21.9c-0.5,0-0.8,0.1-0.8,0.4c0,0.3,0.2,0.4,0.6,0.5c0.5,0.1,0.7,0.5,0.7,1c0,0.8-1,2.1-2.4,3.8
		c-1.4,1.7-8.3,9.2-10,11h-0.2v-2.2c0-7.6,0-9,0.1-10.6c0.1-1.8,0.5-2.6,1.8-2.9c0.6-0.1,0.8-0.1,1.3-0.1c0.4,0,0.7-0.1,0.7-0.5
		c0-0.3-0.3-0.4-1-0.4h-12.5c-0.7,0-1.1,0.1-1.1,0.4c0,0.4,0.3,0.5,0.8,0.5c0.7,0,1.5,0,1.9,0.1c1.6,0.4,1.9,1.1,2,2.9
		c0.1,1.6,0.1,28-0.1,30.1c-0.2,1.4-0.4,2.6-1.4,2.8c-0.4,0.1-1,0.2-1.7,0.2c-0.6,0-0.8,0.1-0.8,0.4c0,0.4,0.3,0.5,1,0.5h12.9
		c0.5,0,0.9-0.1,0.9-0.5c0-0.3-0.3-0.4-0.6-0.4c-0.6,0-1.7-0.1-2.3-0.2c-1.2-0.2-1.6-1.3-1.7-2.7c-0.1-2.2-0.1-6.1-0.1-10.7v-4.6
		h0.2l0.5,0.8c1,1.4,10.4,13,12.5,15c2,1.9,3.3,3,5.9,3.3c1,0.1,1.9,0.1,3.3,0.1h4.2c0.9,0,1.2-0.1,1.2-0.5c0-0.3-0.3-0.4-0.6-0.4
		c-0.6,0-1.5-0.2-3-0.7c-2.6-1.1-4.7-3.3-6.8-5.4c-1.9-1.8-11.2-12.4-12.9-14.8c1.6-1.8,8.8-9.3,10.3-10.8c2.1-2.1,3.7-3.2,5.2-3.8
		C924.6,189.4,925.8,189.2,926.4,189.2"/>
	<path class="st0" d="M958.7,207.3c0-8.6,5.4-19.7,19.7-19.7c11.9,0,19.3,7.3,19.3,18.8c0,11.5-7.6,20.6-19.8,20.6
		C964.3,226.9,958.7,216.1,958.7,207.3 M991,208.2c0-11.2-6.5-18.2-14.4-18.2c-5.5,0-11.3,3.2-11.3,15.7c0,10.4,5.9,18.7,15,18.7
		C983.7,224.4,991,222.7,991,208.2"/>
	<path class="st0" d="M632.1,230.5c-4.3-0.3-8.1-1.5-11.5-4.9c-3.2-3.2-8.8-11.1-12-17.1c4.8-4.1,6.3-7.5,6.3-11.2
		c0-3.4-1.9-5.9-3.3-6.9c-2.6-1.9-5.8-2.2-8.8-2.2h-13.3c-0.7,0-1,0.1-1,0.4c0,0.4,0.3,0.5,0.8,0.5c0.7,0,1.5,0,1.9,0.1
		c1.6,0.4,1.9,1.1,2,2.9c0.1,1.6,0.1,3,0.1,10.6v8.8c0,4.6,0,8.6-0.2,10.7c-0.2,1.4-0.4,2.6-1.4,2.8c-0.4,0.1-1,0.2-1.7,0.2
		c-0.6,0-0.8,0.1-0.8,0.4c0,0.4,0.3,0.5,1,0.5h12.9c0.6,0,0.9-0.1,0.9-0.5c0-0.3-0.2-0.4-0.6-0.4c-0.6,0-1.6-0.1-2.3-0.2
		c-1.4-0.2-1.7-1.3-1.9-2.8c-0.2-2.1-0.2-6.1-0.2-10.7v-0.7c0-0.3,0.1-0.4,0.4-0.4l4.1,0.1c0.4,0,0.7,0,0.9,0.3
		c0.6,1.1,2.9,6.7,5.1,10.2c2.1,3.4,4.2,6.1,6.4,7.8c2.6,2.1,5.3,2.9,8.5,3.2c4.1,0.4,7,0,7.8-0.2c0.7-0.2,1.5-0.4,1.5-0.9
		C633.7,230.4,632.9,230.6,632.1,230.5 M606.5,207.3c-0.9,0.7-1.5,0.9-3.4,0.9c-1.2,0-2.6-0.2-3.6-0.5c-0.3-0.1-0.4-0.3-0.4-0.9
		v-15.3c0-0.4,0.1-0.6,0.4-0.7c0.5-0.2,1.3-0.2,2.5-0.2c2.8,0,7.3,2,7.3,9.2C609.3,203.9,607.9,206.2,606.5,207.3"/>
	<path class="st0" d="M340.1,187.9c-0.2,0-0.6,0.2-1.3,0.3h-27c-1.2-0.1-1.7-0.7-2.1-0.7c-0.3,0-0.4,0.3-0.6,1
		c-0.1,0.5-1.1,5.9-1.1,5.9h0c0,0,0,0.1,0,0.1c0,0.3,0.2,0.5,0.5,0.5c0.2,0,0.4-0.1,0.5-0.3c0,0,0,0,0,0c0.2-0.4,0.4-1.2,0.9-2
		c0.7-1.1,1.9-1.4,4.6-1.4h7.1c0,0,0,28.9-0.2,31c-0.1,1.4-0.4,2.6-1.4,2.8c-0.4,0.1-1,0.2-1.7,0.2c-0.6,0-0.8,0.1-0.8,0.4
		c0,0.4,0.4,0.5,1,0.5H332c0.5,0,0.9-0.1,0.9-0.5c0-0.3-0.2-0.4-0.8-0.4c-0.7,0-1.8-0.1-2.4-0.2c-1.4-0.2-1.7-1.3-1.9-2.7
		c-0.2-2.2-0.2-31.1-0.2-31.1h6c4.2,0.1,5.5,1.5,5.6,2.8l0.1,1c0,0.3,0.2,0.5,0.5,0.5c0.3,0,0.5-0.2,0.5-0.5c0,0,0.1-5.4,0.1-6.1
		C340.5,188.2,340.4,187.9,340.1,187.9"/>
	<path class="st0" d="M696.6,187.9c-0.2,0-0.6,0.2-1.3,0.3h-27c-1.2-0.1-1.7-0.7-2.1-0.7c-0.3,0-0.4,0.3-0.6,1
		c-0.1,0.5-1.1,5.9-1.1,5.9c0,0,0,0.1,0,0.1c0,0.3,0.2,0.5,0.5,0.5c0.2,0,0.4-0.1,0.4-0.3h0c0,0,0,0,0,0c0.2-0.4,0.4-1.2,0.9-2
		c0.7-1.1,1.9-1.4,4.6-1.4h7.1c0,0,0,28.9-0.2,31c-0.1,1.4-0.4,2.6-1.4,2.8c-0.4,0.1-1,0.2-1.7,0.2c-0.6,0-0.8,0.1-0.8,0.4
		c0,0.4,0.3,0.5,1,0.5h13.5c0.5,0,0.9-0.1,0.9-0.5c0-0.3-0.3-0.4-0.8-0.4c-0.7,0-1.8-0.1-2.4-0.2c-1.4-0.2-1.7-1.3-1.9-2.7
		c-0.2-2.2-0.2-31.1-0.2-31.1h6c4.3,0.1,5.5,1.5,5.6,2.8l0.1,1c0,0.3,0.2,0.5,0.5,0.5c0.3,0,0.5-0.2,0.5-0.5c0,0,0.1-5.4,0.1-6.1
		C697,188.2,696.9,187.9,696.6,187.9"/>
	<path class="st0" d="M859.3,175.2c-0.3,0-0.8,0.3-1.7,0.5h-36c-1.6-0.1-2.2-0.9-2.8-0.9c-0.4,0-0.5,0.4-0.7,1.3
		c-0.1,0.7-1.4,7.9-1.4,7.9l0,0c0,0-0.1,0.1-0.1,0.1c0,0.4,0.3,0.7,0.7,0.7c0.3,0,0.5-0.2,0.6-0.4h0v0c0,0,0,0,0,0
		c0.2-0.6,0.6-1.7,1.1-2.7c1-1.5,2.5-1.8,6.2-1.9h9.5c0,0,0,38.6-0.3,41.4c-0.2,1.9-0.6,3.4-1.9,3.7c-0.5,0.1-1.3,0.3-2.3,0.3
		c-0.8,0-1,0.2-1,0.5c0,0.5,0.4,0.7,1.3,0.7h18c0.7,0,1.2-0.2,1.2-0.7c0-0.3-0.3-0.5-1-0.5c-1,0-2.4-0.1-3.2-0.3
		c-1.9-0.3-2.3-1.7-2.5-3.6c-0.3-2.9-0.3-41.5-0.3-41.5h8c5.7,0.1,7.3,2,7.4,3.7l0.2,1.4c0,0.4,0.3,0.7,0.7,0.7
		c0.4,0,0.7-0.3,0.7-0.7c0,0,0.1-7.3,0.1-8.2C859.8,175.6,859.7,175.2,859.3,175.2"/>
	<path class="st0" d="M410.2,219c0-0.3-0.2-0.5-0.5-0.5c-0.3,0-0.5,0.2-0.5,0.4c-0.4,2.1-1.6,3.3-2.9,4c-1.2,0.6-3.2,0.6-4.5,0.6
		c-4.9,0-5-0.6-5.1-4.1c0-1.5,0-11.8,0-11.8c0-0.3,0-0.5,0.3-0.5c1.1,0,5.9,0.1,6.8,0.2c1.8,0.2,2.4,0.9,2.7,2
		c0.1,0.6,0.1,1.3,0.1,1.8c0,0.3,0.2,0.5,0.5,0.5c0.3,0,0.5-0.2,0.5-0.5v0v0l0.7-7.3v-0.1c0-0.3-0.2-0.5-0.5-0.5
		c-0.2,0-0.3,0.1-0.4,0.2c0,0-0.1,0.1-0.1,0.1v0c0,0.1-0.1,0.2-0.2,0.3c-0.4,0.5-1.2,0.6-2.3,0.8c-1.1,0.1-6.6,0.1-7.6,0.1
		c-0.3,0-0.3-0.2-0.3-0.6v-12.7c0-0.3,0.1-0.5,0.3-0.5c1,0,6,0.1,6.8,0.2c2.4,0.3,2.9,0.9,3.2,1.8c0.2,0.6,0.2,1.6,0.2,2
		c0,0.3,0.3,0.5,0.5,0.5c0.3,0,0.5-0.2,0.5-0.4c0.1-0.7,0.6-6.4,0.6-6.7c0-0.2,0-0.4-0.3-0.4c-0.2,0-0.5,0.1-0.8,0.2
		c-0.4,0.1-1.2,0.2-2.1,0.2c-0.9,0-17.5,0-18.8,0c-0.7,0-1,0.1-1,0.4c0,0.4,0.3,0.5,0.8,0.5c0.7,0,1.5,0,1.9,0.1
		c1.6,0.4,2,1.1,2.1,2.9c0.1,1.6,0.1,28-0.1,30.1c-0.2,1.4-0.4,2.6-1.4,2.8c-0.4,0.1-1,0.2-1.7,0.2c-0.6,0-0.8,0.1-0.8,0.4
		c0,0.4,0.3,0.5,1,0.5h19.2c1.8,0,2.4,0.2,2.6-1.1c0.2-1,0.8-5.9,0.8-5.9L410.2,219C410.2,219.1,410.2,219.1,410.2,219"/>
	<path class="st0" d="M563.4,189.2c0.7,0,1.5,0,1.9,0.1c1.6,0.4,2,1.1,2.1,2.9c0.1,1.6,0.1,28-0.2,30.1c-0.2,1.4-0.4,2.6-1.4,2.8
		c-0.4,0.1-1,0.2-1.7,0.2c-0.6,0-0.8,0.1-0.8,0.4c0,0.4,0.3,0.5,0.9,0.5h19.3c1.8,0,2.4,0.2,2.6-1.1c0.2-1,0.8-5.9,0.8-5.9l0,0
		c0,0,0-0.1,0-0.1c0-0.3-0.2-0.5-0.5-0.5c-0.3,0-0.5,0.2-0.5,0.4c-0.5,2.1-1.6,3.3-2.9,4c-1.2,0.6-3.3,0.6-4.5,0.6
		c-4.9,0-5-0.6-5.1-4.1c-0.1-1.5,0-11.8,0-11.8c0-0.3,0.1-0.5,0.3-0.5c1.1,0,5.9,0.1,6.8,0.2c1.8,0.2,2.4,0.9,2.7,2
		c0.1,0.6,0.1,1.3,0.1,1.8c0,0.3,0.2,0.5,0.5,0.5c0.3,0,0.5-0.2,0.5-0.5v0c0,0,0,0,0,0l0.7-7.3h0c0,0,0,0,0-0.1
		c0-0.3-0.2-0.5-0.5-0.5c-0.2,0-0.3,0.1-0.4,0.2c0,0,0,0.1-0.1,0.1l0,0c0,0.1-0.1,0.2-0.2,0.3c-0.4,0.5-1.1,0.6-2.3,0.8
		c-1.1,0.1-6.6,0.1-7.6,0.1c-0.3,0-0.3-0.2-0.3-0.6v-12.7c0-0.3,0.1-0.5,0.3-0.5c0.9,0,6,0.1,6.8,0.2c2.4,0.3,2.9,0.9,3.2,1.8
		c0.3,0.6,0.2,1.6,0.2,2c0,0.3,0.2,0.5,0.5,0.5c0.3,0,0.5-0.2,0.5-0.4c0.1-0.7,0.6-6.4,0.6-6.7c0-0.2,0-0.4-0.3-0.4
		c-0.2,0-0.5,0.1-0.7,0.2c-0.4,0.1-1.2,0.2-2.1,0.2c-0.9,0-27.5,0-28.8,0c-0.9,0-1.3,0.1-1.3,0.5c0,0.4,0.4,0.4,0.8,0.4
		c0.6,0,1.3,0,1.9,0.2c0.4,0.2,0.6,0.6,0.6,1c0,0.5-0.2,1.2-0.4,1.9c-1.2,3.3-7.4,19.4-9.4,25h-0.2l-8.2-22.8
		c-0.7-1.8-1.1-3.2-1.1-3.9c0-0.5,0.1-0.8,0.5-1.1c0.4-0.3,1.1-0.4,1.9-0.4c0.4,0,0.7-0.1,0.7-0.5c0-0.3-0.5-0.4-1.1-0.4H501
		c-0.7,0-1.2,0-1.2,0.4c0,0.3,0.2,0.5,0.8,0.5c0.7,0,1.8,0,2.5,0.3c1.1,0.5,1.6,1.5,1.6,4.5l0.5,22.5h-0.2
		c-0.8-0.8-24.7-27.8-25.3-28.4c-0.8-0.9-1.3-1.6-1.8-1.6c-0.5,0-0.6,0.7-0.6,1.7l-0.4,30.6c0,4.4-0.2,5.8-1.5,6.2
		c-0.7,0.2-1.5,0.3-2.2,0.3c-0.5,0-0.8,0.1-0.8,0.4c0,0.5,0.4,0.5,1.1,0.5h11.1c0.7,0,1.1-0.1,1.1-0.5c0-0.3-0.3-0.4-0.8-0.4
		c-0.8,0-1.7-0.1-2.5-0.3c-1-0.4-1.6-1.7-1.7-5.6l-0.5-21.9h0.1c0.8,1,22.4,25.9,25.4,28.9c0.5,0.5,1.1,1.1,1.6,1.1
		c0.4,0,0.6-0.5,0.6-1.6l0.5-32.3c0.1-2.8,0.4-3.9,1.8-4.3c0.6-0.1,1.3-0.1,1.7-0.1c0.6,0,1.6,0,2.1,0.2c1.1,0.2,1.5,1.1,1.6,2.8
		c0.1,1.6,0.1,28.3-0.2,30.4c-0.1,1.4-0.4,2.3-1.4,2.5c-0.4,0.1-1,0.2-1.7,0.2c-0.6,0-0.8,0.1-0.8,0.4c0,0.4,0.4,0.5,1,0.5h13.5
		c0.5,0,0.9-0.1,0.9-0.5c0-0.3-0.3-0.4-0.8-0.4c-0.7,0-1.8-0.1-2.4-0.2c-1.4-0.2-1.8-1.1-1.9-2.5c-0.2-2.1-0.2-28.8-0.1-30.4
		c0.1-1.8,0.5-2.6,1.8-2.9c0.6-0.1,1-0.1,1.4-0.1c0.4,0,0.9,0,1.6,0.2c1.7,0.5,2.5,1,3.6,3.8l12,30.6c0.9,2.3,1.2,3,1.8,3
		c0.7,0,1-0.8,2.2-3.7c1.1-2.5,10.2-24.2,12.1-28.9c1.3-3.2,2-4.1,2.6-4.5C561.9,189.2,562.9,189.2,563.4,189.2"/>
	<path class="st0" d="M794.1,207.1c1.1,0,5.9,0,6.8,0.1c1.8,0.2,2.4,1,2.7,2c0.1,0.6,0.1,1.3,0.1,1.8c0,0.3,0.3,0.5,0.5,0.5
		c0.3,0,0.5-0.2,0.5-0.5v0v0l0.7-7.3h0c0,0,0,0,0-0.1c0-0.3-0.3-0.5-0.5-0.5c-0.2,0-0.3,0.1-0.4,0.2c0,0,0,0.1-0.1,0.1c0,0,0,0,0,0
		c0,0.1-0.1,0.2-0.2,0.3c-0.4,0.5-1.1,0.6-2.3,0.8c-1.1,0.1-6.6,0.1-7.7,0.1c-0.3,0-0.3-0.2-0.3-0.5v-12.5c0-0.6,0.1-0.7,0.4-0.7
		l7.4,0.2c1.8,0.1,2.7,0.8,3,1.5c0.3,0.7,0.3,1.8,0.3,2.2c0,0.3,0.2,0.5,0.5,0.5c0.3,0,0.5-0.2,0.5-0.4h0v-0.1c0,0,0.7-6.2,0.7-6.6
		c0-0.2-0.2-0.4-0.3-0.4c-0.3,0-0.5,0.2-0.8,0.3c-0.5,0.1-1.1,0.1-2,0.1c-1.1,0-18.2,0-19.5,0c-0.7,0-1.1,0.1-1.1,0.5
		c0,0.3,0.3,0.4,0.8,0.4c0.7,0,1.5,0,1.9,0.1c1.6,0.4,2,1.1,2.1,2.9c0.1,1.6,0.1,28-0.1,30.1c-0.2,1.4-0.4,2.6-1.4,2.8
		c-0.4,0.1-1,0.2-1.7,0.2c-0.5,0-0.7,0.1-0.7,0.4c0,0.4,0.3,0.5,1,0.5H798c0.7,0,1-0.1,1-0.5c0-0.3-0.2-0.4-0.8-0.4
		c-0.7,0-1.7-0.1-2.4-0.2c-1.4-0.2-1.7-1.3-1.9-2.8c-0.2-2.1-0.2-14.7-0.2-14.7C793.8,207.3,793.8,207.1,794.1,207.1"/>
	<path class="st0" d="M636.4,203.3l-1.4-1.1c-3.9-3.1-5.1-4.9-5.1-7.2c0-3,2.2-5.2,5.7-5.2c3.1,0,4.5,1.5,5.2,2.5
		c1,1.3,1.2,2.8,1.2,3.3c0,0.2,0,0.4,0,0.5c0,0.1,0,0.1,0.1,0.2c0,0,0,0,0,0c0,0.1,0.1,0.1,0.1,0.1v0c0.1,0.1,0.2,0.1,0.3,0.1
		c0.3,0,0.5-0.2,0.5-0.5l0.1-6.7c0-0.2,0-0.3,0-0.4c0-0.3-0.3-0.5-0.7-0.6c-1.2-0.3-3.2-0.9-6.4-0.9c-6.6,0-11,4-11,9.5
		c0,4.1,1.8,7.6,7.1,11.9l2.2,1.8c4,3.2,4.7,5.6,4.7,8c0,2.7-2.1,5.7-6.4,5.7c-3,0-5.8-1.4-6.8-5.1c-0.2-0.9-0.4-1.9-0.4-2.6
		c0-0.1,0-0.3,0-0.4v0c0-0.3-0.2-0.5-0.5-0.5c-0.3,0-0.5,0.2-0.5,0.5l-0.2,7.4c0,1.1,0.1,1.4,0.9,1.7c2,1,4.2,1.3,7,1.3
		c2.5,0,5.2-0.5,7.6-2.1c3.5-2.4,4.5-5.8,4.5-8.7C644.3,211.4,642.2,208,636.4,203.3"/>
</g>
</svg>
